<svg xmlns="http://www.w3.org/2000/svg" viewBox="0 0 566.93 149.4"><defs><style>.cls-1{fill:#fc2d7c;}</style></defs><g id="Layer_2" data-name="Layer 2"><g id="Layer_1-2" data-name="Layer 1"><path class="cls-1" d="M264,149.4q-3.23-8.53-6.07-16.78T252,115.84H192.5L180.56,149.4H161.41q7.59-20.85,14.22-38.58t13-33.65Q195,61.24,201.22,46.74c4.17-9.67,8.54-21.52,13.09-31h16.87c4.55,9.48,8.91,21.33,13.08,31s8.37,19.81,12.6,30.43,8.57,21.83,13,33.65S279,135.5,284.07,149.4Zm-17.25-48.73q-6.07-16.48-12-31.94c-4-10.3-8.13-22.46-12.42-31.94-4.43,9.48-8.63,21.64-12.61,31.94s-7.93,21-11.85,31.94Z"/><path class="cls-1" d="M353.27,16.54,369.59.23a.77.77,0,0,1,1.31.54V144.28q-6.06,1.71-15.55,3.41a123.8,123.8,0,0,1-21.8,1.71,55.06,55.06,0,0,1-20.47-3.61,43.9,43.9,0,0,1-15.55-10.23,45.44,45.44,0,0,1-9.95-16.21,62.19,62.19,0,0,1-3.51-21.52,71.35,71.35,0,0,1,3.08-21,46.53,46.53,0,0,1,8.63-16.3,39.19,39.19,0,0,1,13.93-10.62,44.65,44.65,0,0,1,18.87-3.79,46,46,0,0,1,15.07,2.27,48,48,0,0,1,9.76,4.36Zm.14,52.67a36.29,36.29,0,0,0-9.29-5.12,35,35,0,0,0-13.27-2.47,28.41,28.41,0,0,0-13,2.75A24,24,0,0,0,309.05,72a32.19,32.19,0,0,0-4.93,11.47,64.85,64.85,0,0,0-1.66,14.41q0,17.25,8.54,26.64t22.74,9.38a91.31,91.31,0,0,0,12-.66,57.51,57.51,0,0,0,7.49-1.43Z"/><path class="cls-1" d="M401.23,149.4q-7.82-1.71-12-5.81-6.82-6.63-6.82-20.66V16.54L398.71.23A.77.77,0,0,1,400,.77V118.49a44.2,44.2,0,0,0,.75,8.8,9.9,9.9,0,0,0,2.47,4.55,10.64,10.64,0,0,0,4.55,2.56,43.47,43.47,0,0,0,5.51,1.2.77.77,0,0,1,.43,1.3Z"/><path class="cls-1" d="M470.69,149.15c-2.26.16-4.62.25-7.07.25q-12.89,0-22.27-3.89A41.47,41.47,0,0,1,425.9,134.8a43.62,43.62,0,0,1-9-16.21A68.53,68.53,0,0,1,414,98q0-13.08,3.8-22.84a47.63,47.63,0,0,1,10-16.21A40.73,40.73,0,0,1,442.2,49.3a45,45,0,0,1,16.68-3.22q19.9,0,30.52,12.41T500,96.32v2.93a26.08,26.08,0,0,1-.19,3.32H432.34q1.14,15.36,8.91,23.32s14,15.57,41.16,9.54a.77.77,0,0,1,.71,1.29Zm10.94-60.8q.19-11.94-6-19.62t-17-7.68A23.27,23.27,0,0,0,448,63.42a25.36,25.36,0,0,0-7.87,6.16,28.4,28.4,0,0,0-5,8.72,43.2,43.2,0,0,0-2.37,10Z"/><path class="cls-1" d="M554.6,62a74.47,74.47,0,0,0-9.34-.52,46,46,0,0,0-9.77,1c-3.22.69-5.34,1.17-6.35,1.42v68.9l-16.32,16.39a.79.79,0,0,1-1.31-.61V52.33a121.22,121.22,0,0,1,15.55-4.26,99.61,99.61,0,0,1,20.85-2c1.52,0,3.25.09,5.22.28s3.88.45,5.78.76,3.63.63,5.21,1c.87.17,1.61.34,2.23.49a.77.77,0,0,1,.35,1.29Z"/><rect class="cls-1" x="108.7" y="43.06" width="9.73" height="120.56" transform="translate(106.33 -50.04) rotate(45)"/><rect class="cls-1" x="102.78" y="10.83" width="9.73" height="142.35" transform="translate(89.52 -52.1) rotate(45)"/><path class="cls-1" d="M132.89,9,126,2.11,100.42,27.7a54.46,54.46,0,0,1,4.13,9.63Z"/><path class="cls-1" d="M26.55,101.57l6.88,6.88,3.94-3.94a53.23,53.23,0,0,1-9.62-4.13Z"/><path class="cls-1" d="M95,19.62l10-10L98.11,2.71l-10,10A52.49,52.49,0,0,1,95,19.62Z"/><path class="cls-1" d="M48.47,106.78l-8.35,8.35,7.05,7.06,16-16.06A53.53,53.53,0,0,1,48.47,106.78Z"/><path class="cls-1" d="M106.19,63.17,151.05,18.3l-7.05-7L106.81,48.43A53.68,53.68,0,0,1,106.19,63.17Z"/><path class="cls-1" d="M63.22,106.13a53.6,53.6,0,0,0,43-43Z"/><path class="cls-1" d="M19.73,94.89a55.77,55.77,0,0,0,7.07,5l.95.53L100.42,27.7A53,53,0,0,0,95,19.62L19.78,94.8Z"/><path class="cls-1" d="M12.9,87.92,88.14,12.69A53.53,53.53,0,0,0,7.22,26.76a53.13,53.13,0,0,0,5.54,61.29Z"/><path class="cls-1" d="M104.55,37.33,37.37,104.51a52.37,52.37,0,0,0,11.1,2.27l58.34-58.35A53.87,53.87,0,0,0,104.55,37.33Z"/></g></g></svg>